<svg xmlns="http://www.w3.org/2000/svg" width="24" height="24"  viewBox="0 0 24 24"><g transform="matrix(1 0 0 1 0 0)"  ><g style=""   ><g transform="matrix(1 0 0 1 12 12)"  ><path style="stroke: none; stroke-width: 1; stroke-dasharray: none; stroke-linecap: butt; stroke-dashoffset: 0; stroke-linejoin: miter; stroke-miterlimit: 4; fill: rgb(86,93,109); fill-rule: nonzero; opacity: 1;"  transform=" translate(-12, -12)" d="M 21 12 C 21 7.02944 16.9706 3 12 3 C 7.02944 3 3 7.02944 3 12 C 3 16.9706 7.02944 21 12 21 C 16.9706 21 21 16.9706 21 12 Z M 23 12 C 23 18.0751 18.0751 23 12 23 C 5.92487 23 1 18.0751 1 12 C 1 5.92487 5.92487 1 12 1 C 18.0751 1 23 5.92487 23 12 Z" stroke-linecap="round" /></g><g transform="matrix(1 0 0 1 12 12)"  ><path style="stroke: none; stroke-width: 1; stroke-dasharray: none; stroke-linecap: butt; stroke-dashoffset: 0; stroke-linejoin: miter; stroke-miterlimit: 4; fill: rgb(86,93,109); fill-rule: nonzero; opacity: 1;"  transform=" translate(-12, -12)" d="M 17 12 C 17 9.23858 14.7614 7 12 7 C 9.23858 7 7 9.23858 7 12 C 7 14.7614 9.23858 17 12 17 C 14.7614 17 17 14.7614 17 12 Z M 19 12 C 19 15.866 15.866 19 12 19 C 8.13401 19 5 15.866 5 12 C 5 8.13401 8.13401 5 12 5 C 15.866 5 19 8.13401 19 12 Z" stroke-linecap="round" /></g><g transform="matrix(1 0 0 1 12 12)"  ><path style="stroke: none; stroke-width: 1; stroke-dasharray: none; stroke-linecap: butt; stroke-dashoffset: 0; stroke-linejoin: miter; stroke-miterlimit: 4; fill: rgb(86,93,109); fill-rule: nonzero; opacity: 1;"  transform=" translate(-12, -12)" d="M 13 12 C 13 11.4477 12.5523 11 12 11 C 11.4477 11 11 11.4477 11 12 C 11 12.5523 11.4477 13 12 13 C 12.5523 13 13 12.5523 13 12 Z M 15 12 C 15 13.6569 13.6569 15 12 15 C 10.3431 15 9 13.6569 9 12 C 9 10.3431 10.3431 9 12 9 C 13.6569 9 15 10.3431 15 12 Z" stroke-linecap="round" /></g></g></g></svg>