<svg xmlns="http://www.w3.org/2000/svg" width="20" height="20"  viewBox="0 0 20 20"><g transform="matrix(1 0 0 1 0 0)"  ><g style=""   ><g transform="matrix(0.83 0 0 0.83 5.42 5.42)"  ><path style="stroke: none; stroke-width: 1; stroke-dasharray: none; stroke-linecap: butt; stroke-dashoffset: 0; stroke-linejoin: miter; stroke-miterlimit: 4; fill: rgb(26,188,156); fill-rule: nonzero; opacity: 1;"  transform=" translate(-6.5, -6.5)" d="M 4 4 L 4 9 L 9 9 L 9 4 L 4 4 Z M 11 9 C 11 10.1046 10.1046 11 9 11 L 4 11 C 2.89543 11 2 10.1046 2 9 L 2 4 C 2 2.89543 2.89543 2 4 2 L 9 2 C 10.1046 2 11 2.89543 11 4 L 11 9 Z" stroke-linecap="round" /></g><g transform="matrix(0.83 0 0 0.83 5.42 14.58)"  ><path style="stroke: none; stroke-width: 1; stroke-dasharray: none; stroke-linecap: butt; stroke-dashoffset: 0; stroke-linejoin: miter; stroke-miterlimit: 4; fill: rgb(26,188,156); fill-rule: nonzero; opacity: 1;"  transform=" translate(-6.5, -17.5)" d="M 4 15 L 4 20 L 9 20 L 9 15 L 4 15 Z M 11 20 C 11 21.1046 10.1046 22 9 22 L 4 22 C 2.89543 22 2 21.1046 2 20 L 2 15 C 2 13.8954 2.89543 13 4 13 L 9 13 C 10.1046 13 11 13.8954 11 15 L 11 20 Z" stroke-linecap="round" /></g><g transform="matrix(0.83 0 0 0.83 14.58 3.33)"  ><path style="stroke: none; stroke-width: 1; stroke-dasharray: none; stroke-linecap: butt; stroke-dashoffset: 0; stroke-linejoin: miter; stroke-miterlimit: 4; fill: rgb(26,188,156); fill-rule: nonzero; opacity: 1;"  transform=" translate(-17.5, -4)" d="M 21 3 C 21.5523 3 22 3.44772 22 4 C 22 4.55228 21.5523 5 21 5 L 14 5 C 13.4477 5 13 4.55228 13 4 C 13 3.44772 13.4477 3 14 3 L 21 3 Z" stroke-linecap="round" /></g><g transform="matrix(0.83 0 0 0.83 14.58 7.5)"  ><path style="stroke: none; stroke-width: 1; stroke-dasharray: none; stroke-linecap: butt; stroke-dashoffset: 0; stroke-linejoin: miter; stroke-miterlimit: 4; fill: rgb(26,188,156); fill-rule: nonzero; opacity: 1;"  transform=" translate(-17.5, -9)" d="M 21 8 C 21.5523 8 22 8.44772 22 9 C 22 9.55228 21.5523 10 21 10 L 14 10 C 13.4477 10 13 9.55228 13 9 C 13 8.44772 13.4477 8 14 8 L 21 8 Z" stroke-linecap="round" /></g><g transform="matrix(0.83 0 0 0.83 14.58 12.5)"  ><path style="stroke: none; stroke-width: 1; stroke-dasharray: none; stroke-linecap: butt; stroke-dashoffset: 0; stroke-linejoin: miter; stroke-miterlimit: 4; fill: rgb(26,188,156); fill-rule: nonzero; opacity: 1;"  transform=" translate(-17.5, -15)" d="M 21 14 C 21.5523 14 22 14.4477 22 15 C 22 15.5523 21.5523 16 21 16 L 14 16 C 13.4477 16 13 15.5523 13 15 C 13 14.4477 13.4477 14 14 14 L 21 14 Z" stroke-linecap="round" /></g><g transform="matrix(0.83 0 0 0.83 14.58 16.67)"  ><path style="stroke: none; stroke-width: 1; stroke-dasharray: none; stroke-linecap: butt; stroke-dashoffset: 0; stroke-linejoin: miter; stroke-miterlimit: 4; fill: rgb(26,188,156); fill-rule: nonzero; opacity: 1;"  transform=" translate(-17.5, -20)" d="M 21 19 C 21.5523 19 22 19.4477 22 20 C 22 20.5523 21.5523 21 21 21 L 14 21 C 13.4477 21 13 20.5523 13 20 C 13 19.4477 13.4477 19 14 19 L 21 19 Z" stroke-linecap="round" /></g></g></g></svg>