<svg xmlns="http://www.w3.org/2000/svg" width="16" height="16"  viewBox="0 0 16 16"><g transform="matrix(1 0 0 1 0 0)"  ><g style=""   ><g transform="matrix(0.67 0 0 0.67 5.67 8)"  ><path style="stroke: none; stroke-width: 1; stroke-dasharray: none; stroke-linecap: butt; stroke-dashoffset: 0; stroke-linejoin: miter; stroke-miterlimit: 4; fill: rgb(86,93,109); fill-rule: nonzero; opacity: 1;"  transform=" translate(-8.5, -12)" d="M 11.3691 4.22462 C 11.7619 3.90427 12.3409 3.92686 12.707 4.29298 C 13.0731 4.65909 13.0957 5.2381 12.7754 5.63087 L 12.707 5.70704 L 6.41405 12 L 12.707 18.293 L 12.7754 18.3692 C 13.0957 18.7619 13.0731 19.3409 12.707 19.707 C 12.3409 20.0732 11.7619 20.0958 11.3691 19.7754 L 11.293 19.707 L 4.29295 12.707 C 3.90243 12.3165 3.90243 11.6835 4.29295 11.293 L 11.293 4.29298 L 11.3691 4.22462 Z" stroke-linecap="round" /></g><g transform="matrix(0.67 0 0 0.67 8 8)"  ><path style="stroke: none; stroke-width: 1; stroke-dasharray: none; stroke-linecap: butt; stroke-dashoffset: 0; stroke-linejoin: miter; stroke-miterlimit: 4; fill: rgb(86,93,109); fill-rule: nonzero; opacity: 1;"  transform=" translate(-12, -12)" d="M 19 11 C 19.5523 11 20 11.4477 20 12 C 20 12.5523 19.5523 13 19 13 L 5 13 C 4.44772 13 4 12.5523 4 12 C 4 11.4477 4.44772 11 5 11 L 19 11 Z" stroke-linecap="round" /></g></g></g></svg>