<svg xmlns="http://www.w3.org/2000/svg" width="16" height="16"  viewBox="0 0 16 16"><g transform="matrix(1 0 0 1 0 0)"  ><g style=""   ><g transform="matrix(0.67 0 0 0.67 11.41 10.85)"  ><path style="stroke: none; stroke-width: 1; stroke-dasharray: none; stroke-linecap: butt; stroke-dashoffset: 0; stroke-linejoin: miter; stroke-miterlimit: 4; fill: rgb(26,188,156); fill-rule: nonzero; opacity: 1;"  transform=" translate(-17.12, -16.28)" d="M 20.36 11.5314 C 20.7489 11.2067 21.3285 11.2226 21.6988 11.5841 C 22.0939 11.9699 22.1011 12.6031 21.7154 12.9982 L 13.9498 20.9504 L 13.8746 21.0207 C 13.4857 21.3456 12.9062 21.3287 12.5357 20.967 C 12.1406 20.5811 12.1323 19.948 12.5182 19.5529 L 20.2848 11.6017 L 20.36 11.5314 Z" stroke-linecap="round" /></g><g transform="matrix(0.67 0 0 0.67 7.67 8)"  ><path style="stroke: none; stroke-width: 1; stroke-dasharray: none; stroke-linecap: butt; stroke-dashoffset: 0; stroke-linejoin: miter; stroke-miterlimit: 4; fill: rgb(26,188,156); fill-rule: nonzero; opacity: 1;"  transform=" translate(-11.5, -12)" d="M 18.9995 5.99988 C 18.9995 5.30394 18.757 4.63322 18.3198 4.09949 L 18.1206 3.87878 C 17.5582 3.31674 16.7956 3.00098 16.0005 3.00085 C 15.2052 3.00085 14.4419 3.31662 13.8794 3.87878 L 5.47119 12.4569 L 5.46436 12.4637 C 4.52661 13.4015 3.99954 14.6737 3.99951 15.9999 C 3.99951 17.3261 4.52658 18.5982 5.46436 19.536 C 6.40212 20.4737 7.67435 21.0009 9.00049 21.0009 L 9.24756 20.994 C 10.4836 20.9328 11.6564 20.4152 12.5356 19.536 C 12.9261 19.1455 13.5592 19.1456 13.9497 19.536 C 14.3402 19.9265 14.3402 20.5595 13.9497 20.9501 C 12.7189 22.1808 11.0773 22.9062 9.34717 22.9921 L 9.00049 23.0009 C 7.14392 23.0009 5.36313 22.2628 4.05029 20.9501 C 2.73744 19.6372 1.99951 17.8565 1.99951 15.9999 C 1.99954 14.1466 2.73405 12.3687 4.04248 11.0565 L 12.4575 2.47156 L 12.4653 2.46472 L 12.645 2.29382 C 13.5621 1.46374 14.7576 1.00085 16.0005 1.00085 C 17.326 1.00098 18.5972 1.52761 19.5347 2.46472 L 19.5356 2.46472 L 19.7065 2.64441 C 20.5367 3.56151 20.9995 4.75699 20.9995 5.99988 C 20.9995 7.32239 20.4745 8.59026 19.5415 9.52722 L 19.5425 9.5282 L 11.1284 18.1141 L 11.1206 18.121 C 10.5581 18.6832 9.79577 18.9998 9.00049 18.9999 C 8.20503 18.9999 7.44197 18.6833 6.87939 18.121 L 6.87842 18.121 C 6.31613 17.5584 6.00049 16.7953 6.00049 15.9999 C 6.00052 15.2077 6.31352 14.4475 6.87158 13.8856 L 15.2856 5.29968 L 15.3608 5.23035 C 15.7504 4.90607 16.3299 4.92363 16.6997 5.28601 C 17.0942 5.67256 17.1009 6.30562 16.7144 6.70007 L 8.30029 15.286 L 8.29346 15.2928 C 8.10602 15.4803 8.00052 15.7348 8.00049 15.9999 C 8.00049 16.265 8.10599 16.5194 8.29346 16.7069 L 8.3667 16.7733 C 8.54459 16.9189 8.76858 16.9999 9.00049 16.9999 C 9.26534 16.9998 9.51915 16.8941 9.70654 16.7069 L 18.1138 8.12781 L 18.1206 8.12097 L 18.3198 7.90125 C 18.7572 7.36741 18.9995 6.69605 18.9995 5.99988 Z" stroke-linecap="round" /></g></g></g></svg>